<svg xmlns="http://www.w3.org/2000/svg" viewBox="0 0 256 256"><defs><radialGradient id="a" cx="35%" cy="22%" r="75%"><stop offset="0" stop-color="#ff9b7c"/><stop offset=".55" stop-color="#ef4f3f"/><stop offset="1" stop-color="#a92524"/></radialGradient><filter id="s"><feDropShadow dx="0" dy="8" stdDeviation="8" flood-color="#7b2b1d" flood-opacity=".28"/></filter></defs><g filter="url(#s)"><path d="M126 64c10-30 35-41 57-34-12 25-34 36-57 34z" fill="#68ad43" stroke="#3f7b2f" stroke-width="6"/><path d="M129 69c-12-24 3-43 20-56" fill="none" stroke="#7b4a22" stroke-width="8" stroke-linecap="round"/><path d="M128 82c28-30 86-12 91 48 6 73-54 103-91 86-37 17-97-13-91-86 5-60 63-78 91-48z" fill="url(#a)" stroke="#8b2f24" stroke-width="8"/><ellipse cx="92" cy="108" rx="25" ry="16" fill="#ffd0be" opacity=".42" transform="rotate(-25 92 108)"/><circle cx="174" cy="160" r="10" fill="#b82628" opacity=".35"/></g></svg>