<svg xmlns="http://www.w3.org/2000/svg" viewBox="0 0 256 256"><defs><linearGradient id="b" x1="0" x2="0" y1="0" y2="1"><stop offset="0" stop-color="#fff"/><stop offset="1" stop-color="#bfe9ff"/></linearGradient><linearGradient id="p" x1="0" x2="0" y1="0" y2="1"><stop offset="0" stop-color="#ff9fbd"/><stop offset="1" stop-color="#e84b6a"/></linearGradient><filter id="s"><feDropShadow dx="0" dy="8" stdDeviation="7" flood-color="#80384d" flood-opacity=".25"/></filter></defs><g filter="url(#s)"><rect x="96" y="32" width="64" height="48" rx="10" fill="#d9a45b" stroke="#7a4b2a" stroke-width="7"/><path d="M84 78h88l18 112q4 30-26 30H92q-30 0-26-30z" fill="url(#b)" stroke="#2b7896" stroke-width="8"/><path d="M78 146q42 18 100 0l8 42q4 26-22 26H92q-26 0-22-26z" fill="url(#p)"/><path d="M105 168c8-18 38-18 46 0 8 20-12 36-23 45-11-9-31-25-23-45z" fill="#fff8ec" opacity=".92"/><ellipse cx="108" cy="102" rx="18" ry="10" fill="#fff" opacity=".65"/></g></svg>