<svg xmlns="http://www.w3.org/2000/svg" viewBox="0 0 160 180"><defs><filter id="s"><feDropShadow dx="0" dy="8" stdDeviation="7" flood-color="#335" flood-opacity=".18"/></filter><radialGradient id="fur" cx="38%" cy="22%" r="80%"><stop offset="0" stop-color="#fff"/><stop offset=".72" stop-color="#fff8ec"/><stop offset="1" stop-color="#efd9bd"/></radialGradient></defs><g filter="url(#s)"><ellipse cx="80" cy="152" rx="42" ry="12" fill="#244134" opacity=".15"/><path d="M47 58L35 24l30 18M113 58l12-34-30 18" fill="url(#fur)" stroke="#d7b79b" stroke-width="5" stroke-linejoin="round"/><ellipse cx="80" cy="76" rx="48" ry="46" fill="url(#fur)" stroke="#d7b79b" stroke-width="5"/><circle cx="62" cy="74" r="7" fill="#3b2b20"/><circle cx="98" cy="74" r="7" fill="#3b2b20"/><circle cx="59" cy="71" r="2" fill="#fff"/><circle cx="95" cy="71" r="2" fill="#fff"/><circle cx="47" cy="88" r="8" fill="#ffb7bd" opacity=".45"/><circle cx="113" cy="88" r="8" fill="#ffb7bd" opacity=".45"/><path d="M74 87h12l-6 6z" fill="#f4939c"/><path d="M80 93q-8 12-19 2M80 93q8 12 19 2" fill="none" stroke="#3b2b20" stroke-width="4" stroke-linecap="round"/><path d="M48 118q32 28 64 0v35H48z" fill="#2d92cf" stroke="#176a9e" stroke-width="5"/><path d="M53 116h54v25H53z" fill="#fff8ec"/><path d="M64 116l16 16 16-16" fill="none" stroke="#2d92cf" stroke-width="7" stroke-linecap="round"/><path d="M41 123q-16 10-18 27M119 123q16 10 18 27" fill="none" stroke="#d7b79b" stroke-width="8" stroke-linecap="round"/><path d="M62 151v15M98 151v15" stroke="#d7b79b" stroke-width="9" stroke-linecap="round"/><g transform="translate(96 34)"><path d="M-7 0c-14-13-31-4-24 10 8 13 24 4 24-10z" fill="#2d92cf" stroke="#176a9e" stroke-width="4"/><path d="M7 0c14-13 31-4 24 10-8 13-24 4-24-10z" fill="#2d92cf" stroke="#176a9e" stroke-width="4"/><circle r="7" fill="#176a9e"/></g></g></svg>