<svg xmlns="http://www.w3.org/2000/svg" viewBox="0 0 160 160"><defs><filter id="s"><feDropShadow dx="0" dy="7" stdDeviation="6" flood-opacity=".16"/></filter></defs><circle cx="80" cy="80" r="72" fill="#eaf8ff"/><g filter="url(#s)"><path d="M48 62L36 28l29 18M112 62l12-34-29 18" fill="#fff8ec" stroke="#d7b79b" stroke-width="5"/><ellipse cx="80" cy="82" rx="50" ry="48" fill="#fff8ec" stroke="#d7b79b" stroke-width="5"/><circle cx="61" cy="80" r="8"/><circle cx="99" cy="80" r="8"/><circle cx="58" cy="77" r="2.5" fill="#fff"/><circle cx="96" cy="77" r="2.5" fill="#fff"/><circle cx="48" cy="96" r="8" fill="#ffb7bd" opacity=".55"/><circle cx="112" cy="96" r="8" fill="#ffb7bd" opacity=".55"/><path d="M74 93h12l-6 6z" fill="#f4939c"/><path d="M80 99q-8 11-18 2M80 99q8 11 18 2" fill="none" stroke="#3b2b20" stroke-width="4" stroke-linecap="round"/><g transform="translate(98 39)"><path d="M-7 0c-14-13-31-4-24 10 8 13 24 4 24-10zM7 0c14-13 31-4 24 10-8 13-24 4-24-10z" fill="#2d92cf" stroke="#176a9e" stroke-width="4"/><circle r="7" fill="#176a9e"/></g></g></svg>