<svg xmlns="http://www.w3.org/2000/svg" viewBox="0 0 160 180"><defs><filter id="s"><feDropShadow dx="0" dy="8" stdDeviation="7" flood-opacity=".18"/></filter></defs><g filter="url(#s)"><ellipse cx="80" cy="154" rx="44" ry="12" fill="#244134" opacity=".15"/><g transform="rotate(-5 80 90)"><path d="M48 58L36 25l29 18M112 58l12-33-29 18" fill="#fff8ec" stroke="#d7b79b" stroke-width="5"/><ellipse cx="80" cy="76" rx="48" ry="46" fill="#fff8ec" stroke="#d7b79b" stroke-width="5"/><circle cx="62" cy="74" r="7"/><circle cx="98" cy="74" r="7"/><circle cx="47" cy="89" r="8" fill="#ffb7bd" opacity=".5"/><circle cx="113" cy="89" r="8" fill="#ffb7bd" opacity=".5"/><path d="M74 87h12l-6 6z" fill="#f4939c"/><path d="M68 97q12 9 24 0" fill="none" stroke="#3b2b20" stroke-width="4" stroke-linecap="round"/><path d="M48 118q32 28 64 0v35H48z" fill="#2d92cf" stroke="#176a9e" stroke-width="5"/><path d="M53 116h54v25H53z" fill="#fff8ec"/><path d="M64 116l16 16 16-16" fill="none" stroke="#2d92cf" stroke-width="7"/><path d="M40 121q-18-2-26 20M120 121q20 5 27 22" fill="none" stroke="#d7b79b" stroke-width="8" stroke-linecap="round"/><path d="M62 151l-15 13M98 151l14 12" stroke="#d7b79b" stroke-width="9" stroke-linecap="round"/><g transform="translate(96 34)"><path d="M-7 0c-14-13-31-4-24 10 8 13 24 4 24-10zM7 0c14-13 31-4 24 10-8 13-24 4-24-10z" fill="#2d92cf" stroke="#176a9e" stroke-width="4"/><circle r="7" fill="#176a9e"/></g></g></g></svg>