<svg xmlns="http://www.w3.org/2000/svg" viewBox="0 0 180 180"><defs><filter id="s"><feDropShadow dx="0" dy="8" stdDeviation="8" flood-opacity=".2"/></filter></defs><g filter="url(#s)"><ellipse cx="90" cy="156" rx="55" ry="14" fill="#1c2c24" opacity=".18"/><circle cx="48" cy="45" r="17" fill="#2b241f"/><circle cx="132" cy="45" r="17" fill="#2b241f"/><circle cx="48" cy="45" r="8" fill="#9b6b43"/><circle cx="132" cy="45" r="8" fill="#9b6b43"/><ellipse cx="90" cy="104" rx="58" ry="62" fill="#2b241f" stroke="#15110f" stroke-width="5"/><ellipse cx="90" cy="119" rx="28" ry="35" fill="#7c624a" opacity=".7"/><circle cx="68" cy="78" r="8" fill="#f6b73c"/><circle cx="112" cy="78" r="8" fill="#f6b73c"/><ellipse cx="90" cy="91" rx="20" ry="15" fill="#b58a65"/><path d="M82 88h16l-8 8z" fill="#1d1715"/><path d="M72 64q-10-7-21-2M108 64q10-7 21-2" stroke="#15110f" stroke-width="6" stroke-linecap="round"/><path d="M38 94q-26 18-22 54M142 94q26 18 22 54" fill="none" stroke="#2b241f" stroke-width="17" stroke-linecap="round"/><path d="M54 145v18M126 145v18" stroke="#2b241f" stroke-width="16" stroke-linecap="round"/><path d="M42 62q48 24 96 0" fill="none" stroke="#6ba044" stroke-width="12" stroke-linecap="round"/><path d="M64 31l11 12M88 25l2 17M113 31l-11 12" stroke="#78b84b" stroke-width="7" stroke-linecap="round"/></g></svg>