<svg xmlns="http://www.w3.org/2000/svg" viewBox="0 0 160 180"><defs><filter id="s"><feDropShadow dx="0" dy="8" stdDeviation="7" flood-opacity=".18"/></filter></defs><g filter="url(#s)"><ellipse cx="80" cy="154" rx="42" ry="12" fill="#244134" opacity=".15"/><path d="M36 78q-31 9-32 49 34-4 57-31M124 78q31 9 32 49-34-4-57-31" fill="#f3a0ba" stroke="#9b5573" stroke-width="5"/><ellipse cx="80" cy="86" rx="50" ry="58" fill="#f5a8bd" stroke="#9b5573" stroke-width="5"/><circle cx="61" cy="76" r="18" fill="#fff8ec"/><circle cx="99" cy="76" r="18" fill="#fff8ec"/><circle cx="61" cy="76" r="8" fill="#4d3426"/><circle cx="99" cy="76" r="8" fill="#4d3426"/><circle cx="61" cy="76" r="23" fill="none" stroke="#d9a351" stroke-width="5"/><circle cx="99" cy="76" r="23" fill="none" stroke="#d9a351" stroke-width="5"/><path d="M80 88l-12 12h24z" fill="#e9a331"/><ellipse cx="80" cy="116" rx="23" ry="25" fill="#ffd6df"/><path d="M64 145v16M96 145v16" stroke="#bd7b32" stroke-width="8" stroke-linecap="round"/><g transform="translate(82 35)"><ellipse cx="0" cy="0" rx="23" ry="10" fill="#ad6b9e" stroke="#7b4a7d" stroke-width="4" transform="rotate(-8)"/><circle cx="14" cy="-5" r="6" fill="#ffd6df"/></g><path d="M24 47l-8-9M136 47l8-9" stroke="#ffd94a" stroke-width="6" stroke-linecap="round"/></g></svg>