<svg xmlns="http://www.w3.org/2000/svg" viewBox="0 0 160 180"><defs><filter id="s"><feDropShadow dx="0" dy="8" stdDeviation="7" flood-opacity=".18"/></filter><radialGradient id="p" cx="36%" cy="22%" r="80%"><stop offset="0" stop-color="#ffe6ef"/><stop offset=".65" stop-color="#f5a8bd"/><stop offset="1" stop-color="#d97094"/></radialGradient></defs><g filter="url(#s)"><ellipse cx="80" cy="154" rx="42" ry="12" fill="#244134" opacity=".15"/><ellipse cx="80" cy="86" rx="52" ry="62" fill="url(#p)" stroke="#9b5573" stroke-width="5"/><path d="M34 84q-18 24-8 52 25-3 38-30M126 84q18 24 8 52-25-3-38-30" fill="#f3a0ba" stroke="#9b5573" stroke-width="5"/><circle cx="61" cy="77" r="19" fill="#fff8ec"/><circle cx="99" cy="77" r="19" fill="#fff8ec"/><circle cx="61" cy="77" r="9" fill="#4d3426"/><circle cx="99" cy="77" r="9" fill="#4d3426"/><circle cx="58" cy="73" r="3" fill="#fff"/><circle cx="96" cy="73" r="3" fill="#fff"/><circle cx="61" cy="77" r="24" fill="none" stroke="#d9a351" stroke-width="5"/><circle cx="99" cy="77" r="24" fill="none" stroke="#d9a351" stroke-width="5"/><path d="M80 88l-12 12h24z" fill="#e9a331"/><ellipse cx="80" cy="116" rx="24" ry="26" fill="#ffd6df"/><path d="M64 145v16M96 145v16" stroke="#bd7b32" stroke-width="8" stroke-linecap="round"/><g transform="translate(82 35)"><ellipse cx="0" cy="0" rx="23" ry="10" fill="#ad6b9e" stroke="#7b4a7d" stroke-width="4" transform="rotate(-8)"/><circle cx="14" cy="-5" r="6" fill="#ffd6df"/></g></g></svg>