<svg xmlns="http://www.w3.org/2000/svg" viewBox="0 0 160 180"><defs><filter id="s"><feDropShadow dx="0" dy="8" stdDeviation="7" flood-opacity=".18"/></filter></defs><g filter="url(#s)"><ellipse cx="80" cy="154" rx="45" ry="12" fill="#244134" opacity=".15"/><ellipse cx="80" cy="82" rx="50" ry="56" fill="#f5a8bd" stroke="#9b5573" stroke-width="5"/><circle cx="61" cy="74" r="18" fill="#fff8ec"/><circle cx="99" cy="74" r="18" fill="#fff8ec"/><circle cx="61" cy="74" r="8" fill="#4d3426"/><circle cx="99" cy="74" r="8" fill="#4d3426"/><circle cx="61" cy="74" r="23" fill="none" stroke="#d9a351" stroke-width="5"/><circle cx="99" cy="74" r="23" fill="none" stroke="#d9a351" stroke-width="5"/><path d="M80 86l-12 12h24z" fill="#e9a331"/><ellipse cx="80" cy="113" rx="23" ry="24" fill="#ffd6df"/><path d="M44 102q-18 12-18 34M116 102q18 12 18 34" fill="none" stroke="#9b5573" stroke-width="9" stroke-linecap="round"/><rect x="48" y="128" width="64" height="34" rx="6" fill="#3c9ccc" stroke="#1d5e83" stroke-width="5"/><path d="M78 133v26M88 139h13M88 149h11" stroke="#fff8ec" stroke-width="4" stroke-linecap="round"/><path d="M116 121l26-25" stroke="#8b5b2b" stroke-width="5" stroke-linecap="round"/><path d="M134 94l10-17" stroke="#d9784f" stroke-width="6" stroke-linecap="round"/><g transform="translate(82 33)"><ellipse cx="0" cy="0" rx="23" ry="10" fill="#ad6b9e" stroke="#7b4a7d" stroke-width="4" transform="rotate(-8)"/><circle cx="14" cy="-5" r="6" fill="#ffd6df"/></g></g></svg>