<svg xmlns="http://www.w3.org/2000/svg" viewBox="0 0 960 540" width="960" height="540" role="img" aria-label="森林学校背景">
  <defs>
    <linearGradient id="sky" x1="0" y1="0" x2="1" y2="1">
      <stop offset="0" stop-color="#dff7ff"/>
      <stop offset="0.48" stop-color="#ecffd8"/>
      <stop offset="1" stop-color="#bfe88d"/>
    </linearGradient>
    <linearGradient id="path" x1="0" y1="0" x2="1" y2="0">
      <stop offset="0" stop-color="#ecd879"/>
      <stop offset="1" stop-color="#fff0a3"/>
    </linearGradient>
    <filter id="soft" x="-20%" y="-20%" width="140%" height="140%">
      <feGaussianBlur stdDeviation="8"/>
    </filter>
  </defs>

  <rect width="960" height="540" fill="url(#sky)"/>
  <ellipse cx="480" cy="548" rx="590" ry="122" fill="#94ce5d" opacity=".42"/>
  <path d="M65 452 C188 365 244 270 382 258 C500 248 540 308 666 292 C760 280 822 224 908 166" fill="none" stroke="url(#path)" stroke-width="52" stroke-linecap="round" opacity=".8"/>

  <g opacity=".6">
    <circle cx="124" cy="82" r="5" fill="#ffd66c"/>
    <circle cx="220" cy="168" r="4" fill="#f28d8d"/>
    <circle cx="690" cy="96" r="5" fill="#ffd66c"/>
    <circle cx="802" cy="228" r="4" fill="#f28d8d"/>
    <circle cx="360" cy="94" r="5" fill="#9fd57c"/>
    <circle cx="612" cy="188" r="4" fill="#f28d8d"/>
  </g>

  <g transform="translate(410 78)">
    <rect x="-118" y="86" width="236" height="134" rx="20" fill="#f5dc74"/>
    <path d="M-142 92 L0 8 L142 92 Z" fill="#82ba3a"/>
    <text x="0" y="72" text-anchor="middle" font-family="Arial, 'Microsoft YaHei', sans-serif" font-size="28" font-weight="800" fill="#3e7d34">森林学校</text>
    <rect x="-34" y="142" width="54" height="78" rx="14" fill="#77bb42"/>
    <rect x="72" y="118" width="46" height="46" rx="10" fill="#fff9dc"/>
  </g>

  <g transform="translate(122 230)">
    <rect x="-17" y="64" width="34" height="116" rx="12" fill="#8e5d28"/>
    <circle cx="-38" cy="35" r="64" fill="#73b947"/>
    <circle cx="28" cy="26" r="75" fill="#79bd4c"/>
    <circle cx="78" cy="60" r="58" fill="#75b84a"/>
    <circle cx="14" cy="102" r="62" fill="#6cad42"/>
    <circle cx="28" cy="55" r="7" fill="#f15c4d"/>
    <circle cx="-22" cy="73" r="9" fill="#e44e45"/>
  </g>

  <g transform="translate(820 232)">
    <rect x="-18" y="72" width="36" height="104" rx="12" fill="#8e5d28"/>
    <circle cx="-44" cy="42" r="64" fill="#75ba4a"/>
    <circle cx="22" cy="26" r="76" fill="#78bd4d"/>
    <circle cx="74" cy="72" r="58" fill="#80bf51"/>
    <circle cx="-10" cy="96" r="54" fill="#6ead42"/>
    <circle cx="28" cy="62" r="8" fill="#f15c4d"/>
    <circle cx="-24" cy="77" r="7" fill="#e44e45"/>
  </g>

  <g transform="translate(180 412)">
    <rect x="-18" y="40" width="36" height="90" rx="10" fill="#8e5d28"/>
    <circle cx="-36" cy="22" r="45" fill="#75ba4a"/>
    <circle cx="28" cy="12" r="50" fill="#70b742"/>
    <circle cx="60" cy="48" r="40" fill="#78bd4d"/>
    <circle cx="0" cy="55" r="42" fill="#69ab3f"/>
    <circle cx="-6" cy="42" r="6" fill="#f15c4d"/>
    <circle cx="34" cy="54" r="6" fill="#e44e45"/>
  </g>

  <ellipse cx="480" cy="348" rx="88" ry="18" fill="#598f44" opacity=".18" filter="url(#soft)"/>
  <ellipse cx="258" cy="372" rx="58" ry="12" fill="#598f44" opacity=".16"/>
  <ellipse cx="728" cy="360" rx="58" ry="12" fill="#598f44" opacity=".16"/>

  <g fill="#fff8d8" opacity=".75">
    <ellipse cx="350" cy="190" rx="9" ry="5" transform="rotate(-14 350 190)"/>
    <ellipse cx="626" cy="160" rx="10" ry="5" transform="rotate(18 626 160)"/>
    <ellipse cx="538" cy="82" rx="11" ry="6" transform="rotate(25 538 82)"/>
    <ellipse cx="690" cy="58" rx="5" ry="9" transform="rotate(-24 690 58)"/>
  </g>
</svg>
