<svg xmlns="http://www.w3.org/2000/svg" viewBox="0 0 512 512">
  <defs><radialGradient id="bg" cx="35%" cy="22%" r="75%"><stop offset="0" stop-color="#fff7df"/><stop offset="1" stop-color="#d9efb8"/></radialGradient><filter id="shadow"><feDropShadow dx="0" dy="12" stdDeviation="10" flood-color="#875b3b" flood-opacity=".24"/></filter></defs>
  <rect width="512" height="512" rx="96" fill="url(#bg)"/>
  <g opacity=".7"><circle cx="88" cy="92" r="16" fill="#fff"/><circle cx="420" cy="124" r="12" fill="#fff"/><path d="M64 390c66-42 130-45 190-10 58 34 112 20 190-28" fill="none" stroke="#a8d778" stroke-width="22" stroke-linecap="round"/></g>
  <g filter="url(#shadow)">
    <path d="M340 346c112-8 122-148 44-206 72 18 116 92 90 170-24 70-86 116-164 110z" fill="#b96d32" stroke="#7a4424" stroke-width="8"/>
    <path d="M176 160l-42-70 72 18zM336 160l42-70-72 18z" fill="#c47a3e" stroke="#7a4424" stroke-width="8" stroke-linejoin="round"/>
    <ellipse cx="256" cy="246" rx="132" ry="118" fill="#c87b3b" stroke="#7a4424" stroke-width="8"/>
    <ellipse cx="256" cy="282" rx="82" ry="62" fill="#ffe0b8" opacity=".9"/>
    <circle cx="208" cy="230" r="22" fill="#241b17"/><circle cx="304" cy="230" r="22" fill="#241b17"/>
    <circle cx="199" cy="220" r="7" fill="#fff"/><circle cx="295" cy="220" r="7" fill="#fff"/>
    <ellipse cx="184" cy="280" rx="26" ry="15" fill="#ff9a8b" opacity=".55"/><ellipse cx="328" cy="280" rx="26" ry="15" fill="#ff9a8b" opacity=".55"/>
    <path d="M238 266q18 18 36 0" fill="none" stroke="#7a2d22" stroke-width="8" stroke-linecap="round"/>
    <path d="M180 360q76 52 152 0l20 78H160z" fill="#f1c58a" stroke="#7a4424" stroke-width="7" stroke-linejoin="round"/>
    <path d="M192 350q64 34 128 0" fill="none" stroke="#4e9a41" stroke-width="24" stroke-linecap="round"/>
    <ellipse cx="252" cy="354" rx="46" ry="34" fill="#8b5a2b" stroke="#5f371d" stroke-width="7" transform="rotate(-8 252 354)"/>
    <path d="M235 336q24-20 52 0" fill="none" stroke="#d9a66a" stroke-width="8" stroke-linecap="round"/>
  </g>
  <text x="256" y="486" text-anchor="middle" font-family="Verdana, sans-serif" font-size="42" font-weight="900" fill="#6b3e22">Coco</text>
</svg>