<svg xmlns="http://www.w3.org/2000/svg" viewBox="0 0 240 240" role="img" aria-label="Coco squirrel NPC portrait"><defs><radialGradient id="bg" cx="35%" cy="20%" r="75%"><stop offset="0" stop-color="#fff9d8"/><stop offset="1" stop-color="#f2c27a"/></radialGradient><filter id="s"><feDropShadow dx="0" dy="8" stdDeviation="6" flood-color="#8a5a2b" flood-opacity=".18"/></filter></defs><rect width="240" height="240" rx="42" fill="url(#bg)"/><g filter="url(#s)"><path d="M166 88c34-30 64 8 39 42-14 20-37 23-52 10" fill="#b66b2b" stroke="#7a421e" stroke-width="5"/><path d="M70 92l-16-34 36 16M170 92l16-34-36 16" fill="#bf7637" stroke="#7a421e" stroke-width="5" stroke-linejoin="round"/><circle cx="120" cy="124" r="61" fill="#c9823f" stroke="#7a421e" stroke-width="5"/><ellipse cx="120" cy="153" rx="35" ry="25" fill="#ffe0aa"/><circle cx="96" cy="119" r="8" fill="#3b251b"/><circle cx="144" cy="119" r="8" fill="#3b251b"/><circle cx="93" cy="140" r="11" fill="#f5a66f"/><circle cx="147" cy="140" r="11" fill="#f5a66f"/><circle cx="120" cy="135" r="6" fill="#56301f"/><path d="M112 146q8 8 16 0" fill="none" stroke="#56301f" stroke-width="4" stroke-linecap="round"/><path d="M81 198q39-28 78 0v25H81z" fill="#69a24a" stroke="#3f7d36" stroke-width="4"/><circle cx="178" cy="172" r="15" fill="#9a5a24" stroke="#5e3519" stroke-width="4"/><path d="M166 165h24M173 157l10 30" stroke="#d9a366" stroke-width="3"/></g></svg>