<svg xmlns="http://www.w3.org/2000/svg" viewBox="0 0 240 240" role="img" aria-label="Dodo duck NPC portrait"><defs><radialGradient id="bg" cx="35%" cy="20%" r="75%"><stop offset="0" stop-color="#e2f8ff"/><stop offset="1" stop-color="#8fd5f2"/></radialGradient><filter id="s"><feDropShadow dx="0" dy="8" stdDeviation="6" flood-color="#2b6a8a" flood-opacity=".18"/></filter></defs><rect width="240" height="240" rx="42" fill="url(#bg)"/><g filter="url(#s)"><circle cx="120" cy="128" r="60" fill="#ffd84f" stroke="#c88d1c" stroke-width="5"/><path d="M78 117c-26-8-34 26-8 37 18 7 41-2 51-13" fill="#ffc338" stroke="#c88d1c" stroke-width="4"/><circle cx="98" cy="121" r="8" fill="#3b2a1b"/><circle cx="142" cy="121" r="8" fill="#3b2a1b"/><path d="M105 139q15 16 30 0" fill="none" stroke="#8a5a1d" stroke-width="4" stroke-linecap="round"/><path d="M109 131h43c14 0 14 17 0 17h-43c-13 0-13-17 0-17z" fill="#ff8b36" stroke="#c75d1d" stroke-width="4"/><path d="M81 199q39-28 78 0v25H81z" fill="#3d8fd7" stroke="#286eaa" stroke-width="4"/><path d="M82 75q40-32 79 0v18H82z" fill="#2d8bd0" stroke="#1d659d" stroke-width="4"/><rect x="112" y="55" width="48" height="20" rx="10" fill="#2d8bd0" stroke="#1d659d" stroke-width="4"/></g></svg>