<svg xmlns="http://www.w3.org/2000/svg" viewBox="0 0 512 512">
  <defs><radialGradient id="bg" cx="35%" cy="22%" r="75%"><stop offset="0" stop-color="#f1fbff"/><stop offset="1" stop-color="#cfeefd"/></radialGradient><filter id="shadow"><feDropShadow dx="0" dy="12" stdDeviation="10" flood-color="#356078" flood-opacity=".22"/></filter></defs>
  <rect width="512" height="512" rx="96" fill="url(#bg)"/>
  <g opacity=".75"><path d="M62 390c50-34 118-48 184-20 70 30 132 12 206-32" fill="none" stroke="#88d3cb" stroke-width="22" stroke-linecap="round"/><circle cx="95" cy="100" r="15" fill="#fff"/><circle cx="424" cy="118" r="12" fill="#fff"/></g>
  <g filter="url(#shadow)">
    <ellipse cx="256" cy="266" rx="126" ry="116" fill="#ffd84d" stroke="#8b5b24" stroke-width="8"/>
    <circle cx="256" cy="202" r="84" fill="#ffe568" stroke="#8b5b24" stroke-width="8"/>
    <circle cx="220" cy="194" r="20" fill="#211b18"/><circle cx="292" cy="194" r="20" fill="#211b18"/>
    <circle cx="213" cy="186" r="7" fill="#fff"/><circle cx="285" cy="186" r="7" fill="#fff"/>
    <path d="M218 236q38 26 76 0l-38 52z" fill="#f58d29" stroke="#8b4a18" stroke-width="7" stroke-linejoin="round"/>
    <ellipse cx="188" cy="244" rx="24" ry="14" fill="#ff9a8b" opacity=".55"/><ellipse cx="324" cy="244" rx="24" ry="14" fill="#ff9a8b" opacity=".55"/>
    <path d="M174 336q82 58 164 0l24 86H150z" fill="#ffe568" stroke="#8b5b24" stroke-width="7" stroke-linejoin="round"/>
    <path d="M182 172q60-52 148 0" fill="none" stroke="#2f8ac5" stroke-width="36" stroke-linecap="round"/>
    <path d="M185 164h142q18 0 22 18H163q4-18 22-18z" fill="#2778b7" stroke="#18527f" stroke-width="7"/>
    <path d="M170 310q-54 24-82-10" fill="none" stroke="#ffd84d" stroke-width="32" stroke-linecap="round"/>
    <path d="M342 310q54 24 82-10" fill="none" stroke="#ffd84d" stroke-width="32" stroke-linecap="round"/>
    <path d="M344 280q34-60 78-24 30 25 2 64" fill="none" stroke="#8b5b24" stroke-width="8"/>
  </g>
  <text x="256" y="486" text-anchor="middle" font-family="Verdana, sans-serif" font-size="42" font-weight="900" fill="#6b3e22">Dodo</text>
</svg>