<svg xmlns="http://www.w3.org/2000/svg" viewBox="0 0 240 240" role="img" aria-label="Lily rabbit NPC portrait">
  <defs>
    <radialGradient id="bg" cx="35%" cy="20%" r="75%"><stop offset="0" stop-color="#fff"/><stop offset="1" stop-color="#ffe4ef"/></radialGradient>
    <filter id="shadow" x="-20%" y="-20%" width="140%" height="140%"><feDropShadow dx="0" dy="8" stdDeviation="6" flood-color="#8a5a2b" flood-opacity=".18"/></filter>
  </defs>
  <rect width="240" height="240" rx="42" fill="url(#bg)"/>
  <g filter="url(#shadow)">
    <ellipse cx="84" cy="72" rx="24" ry="58" fill="#fff7f6" stroke="#df9a9c" stroke-width="5" transform="rotate(-12 84 72)"/>
    <ellipse cx="156" cy="72" rx="24" ry="58" fill="#fff7f6" stroke="#df9a9c" stroke-width="5" transform="rotate(12 156 72)"/>
    <ellipse cx="84" cy="73" rx="11" ry="38" fill="#ffc8d9" transform="rotate(-12 84 73)"/>
    <ellipse cx="156" cy="73" rx="11" ry="38" fill="#ffc8d9" transform="rotate(12 156 73)"/>
    <circle cx="120" cy="130" r="62" fill="#fff8f4" stroke="#d78c8e" stroke-width="5"/>
    <circle cx="95" cy="122" r="8" fill="#402822"/><circle cx="145" cy="122" r="8" fill="#402822"/>
    <circle cx="92" cy="143" r="12" fill="#ffb5c7" opacity=".85"/><circle cx="148" cy="143" r="12" fill="#ffb5c7" opacity=".85"/>
    <path d="M113 136 q7 7 14 0" fill="none" stroke="#9c5b4b" stroke-width="4" stroke-linecap="round"/>
    <circle cx="120" cy="131" r="5" fill="#d97b83"/>
    <path d="M151 91 c8-17 31-15 31 3 0 18-24 27-31 43-7-16-31-25-31-43 0-18 23-20 31-3z" fill="#ff7da0" stroke="#d95f82" stroke-width="3" transform="scale(.45) translate(190 28)"/>
    <path d="M64 198 q56-34 112 0 v24 H64z" fill="#ff8fb1" stroke="#d56b8a" stroke-width="4"/>
    <circle cx="120" cy="199" r="10" fill="#fff5e6"/>
  </g>
</svg>
