<svg xmlns="http://www.w3.org/2000/svg" viewBox="0 0 512 512">
  <defs><radialGradient id="bg" cx="35%" cy="22%" r="75%"><stop offset="0" stop-color="#fff8e6"/><stop offset="1" stop-color="#d8f1d0"/></radialGradient><filter id="shadow"><feDropShadow dx="0" dy="12" stdDeviation="10" flood-color="#875b3b" flood-opacity=".24"/></filter></defs>
  <rect width="512" height="512" rx="96" fill="url(#bg)"/>
  <g opacity=".72"><path d="M68 392c68-44 128-44 190-10 62 36 116 20 184-28" fill="none" stroke="#a9d47b" stroke-width="22" stroke-linecap="round"/><circle cx="86" cy="88" r="16" fill="#fff"/><circle cx="420" cy="114" r="12" fill="#fff"/></g>
  <g filter="url(#shadow)">
    <path d="M152 188l-26-58 54 28-5-68 42 54 22-70 24 72 48-54-11 70 64-32-32 64 62-2-44 48 38 28-56 26 8 62-56-26-28 60-30-54-54 42 8-64-62 16 36-58-58-34 58-18z" fill="#8b5a37" opacity=".9"/>
    <ellipse cx="256" cy="254" rx="128" ry="108" fill="#e8c8a5" stroke="#6b4328" stroke-width="8"/>
    <path d="M154 214q102-66 204 0" fill="none" stroke="#6b4328" stroke-width="18" stroke-linecap="round" opacity=".65"/>
    <circle cx="210" cy="240" r="22" fill="#241b17"/><circle cx="302" cy="240" r="22" fill="#241b17"/>
    <circle cx="202" cy="230" r="7" fill="#fff"/><circle cx="294" cy="230" r="7" fill="#fff"/>
    <ellipse cx="184" cy="286" rx="26" ry="15" fill="#ff9a8b" opacity=".55"/><ellipse cx="328" cy="286" rx="26" ry="15" fill="#ff9a8b" opacity=".55"/>
    <path d="M238 270q18 18 36 0" fill="none" stroke="#7a2d22" stroke-width="8" stroke-linecap="round"/>
    <path d="M178 360q78 54 156 0l20 82H158z" fill="#e0c6a7" stroke="#6b4328" stroke-width="7" stroke-linejoin="round"/>
    <rect x="214" y="318" width="84" height="66" rx="12" fill="#4f8e43" stroke="#315c2e" stroke-width="7"/>
    <path d="M256 318v66" stroke="#315c2e" stroke-width="5"/>
    <path d="M236 132q18-34 54 0" fill="none" stroke="#59a847" stroke-width="18" stroke-linecap="round"/>
  </g>
  <text x="256" y="486" text-anchor="middle" font-family="Verdana, sans-serif" font-size="42" font-weight="900" fill="#6b3e22">Nono</text>
</svg>