<svg xmlns="http://www.w3.org/2000/svg" viewBox="0 0 240 240" role="img" aria-label="Nono hedgehog NPC portrait"><defs><radialGradient id="bg" cx="35%" cy="20%" r="75%"><stop offset="0" stop-color="#fff8dc"/><stop offset="1" stop-color="#d6b48a"/></radialGradient><filter id="s"><feDropShadow dx="0" dy="8" stdDeviation="6" flood-color="#8a5a2b" flood-opacity=".18"/></filter></defs><rect width="240" height="240" rx="42" fill="url(#bg)"/><g filter="url(#s)"><path d="M67 95l-22-31 38 9-8-38 31 24 14-36 14 36 31-24-8 38 38-9-22 31c19 16 28 39 22 64-9 38-43 58-75 58s-66-20-75-58c-6-25 3-48 22-64z" fill="#8b5b36" stroke="#59361f" stroke-width="5" stroke-linejoin="round"/><circle cx="120" cy="137" r="55" fill="#f6d2a5" stroke="#8a5a2b" stroke-width="4"/><circle cx="98" cy="130" r="8" fill="#362318"/><circle cx="142" cy="130" r="8" fill="#362318"/><circle cx="96" cy="150" r="10" fill="#ef9f86"/><circle cx="144" cy="150" r="10" fill="#ef9f86"/><path d="M108 145q12 12 24 0" fill="none" stroke="#6f4028" stroke-width="4" stroke-linecap="round"/><circle cx="120" cy="140" r="6" fill="#6f4028"/><path d="M79 199q41-27 82 0v24H79z" fill="#8dc7e8" stroke="#5289aa" stroke-width="4"/><rect x="105" y="74" width="30" height="48" rx="6" fill="#8a5a2b" transform="rotate(10 120 98)"/><path d="M111 88h18M111 99h18" stroke="#f6d2a5" stroke-width="3"/></g></svg>