<svg xmlns="http://www.w3.org/2000/svg" viewBox="0 0 512 512">
  <defs><radialGradient id="bg" cx="35%" cy="22%" r="75%"><stop offset="0" stop-color="#f8fbf2"/><stop offset="1" stop-color="#d9ecd2"/></radialGradient><filter id="shadow"><feDropShadow dx="0" dy="12" stdDeviation="10" flood-color="#314037" flood-opacity=".25"/></filter></defs>
  <rect width="512" height="512" rx="96" fill="url(#bg)"/>
  <g opacity=".72"><path d="M62 392c70-44 130-44 190-10 64 36 120 20 190-28" fill="none" stroke="#a9d47b" stroke-width="22" stroke-linecap="round"/><circle cx="86" cy="96" r="16" fill="#fff"/><circle cx="420" cy="118" r="12" fill="#fff"/></g>
  <g filter="url(#shadow)">
    <path d="M166 165l-44-62 78 22zM346 165l44-62-78 22z" fill="#6c6258" stroke="#332c28" stroke-width="8" stroke-linejoin="round"/>
    <ellipse cx="256" cy="256" rx="130" ry="118" fill="#746b61" stroke="#332c28" stroke-width="8"/>
    <ellipse cx="256" cy="286" rx="82" ry="58" fill="#eee1d0" opacity=".95"/>
    <path d="M145 222q111-78 222 0-42 46-111 46t-111-46z" fill="#2f2b2a" opacity=".92"/>
    <circle cx="210" cy="232" r="22" fill="#111"/><circle cx="302" cy="232" r="22" fill="#111"/>
    <circle cx="202" cy="223" r="7" fill="#fff"/><circle cx="294" cy="223" r="7" fill="#fff"/>
    <ellipse cx="184" cy="286" rx="25" ry="14" fill="#ff9a8b" opacity=".5"/><ellipse cx="328" cy="286" rx="25" ry="14" fill="#ff9a8b" opacity=".5"/>
    <path d="M238 270q18 18 36 0" fill="none" stroke="#7a2d22" stroke-width="8" stroke-linecap="round"/>
    <path d="M178 360q78 54 156 0l20 82H158z" fill="#756c62" stroke="#332c28" stroke-width="7" stroke-linejoin="round"/>
    <path d="M192 348q64 34 128 0" fill="none" stroke="#4e9a41" stroke-width="24" stroke-linecap="round"/>
    <path d="M364 352c66-8 94-72 45-112 40 10 76 52 64 106-14 64-74 96-132 82z" fill="#6a6158" stroke="#332c28" stroke-width="8"/>
    <ellipse cx="250" cy="354" rx="34" ry="28" fill="#9b6230" stroke="#5d361c" stroke-width="6"/>
  </g>
  <text x="256" y="486" text-anchor="middle" font-family="Verdana, sans-serif" font-size="42" font-weight="900" fill="#6b3e22">Ruru</text>
</svg>