<svg xmlns="http://www.w3.org/2000/svg" viewBox="0 0 240 240" role="img" aria-label="Ruru raccoon NPC portrait"><defs><radialGradient id="bg" cx="35%" cy="20%" r="75%"><stop offset="0" stop-color="#f1fff0"/><stop offset="1" stop-color="#b7d7a8"/></radialGradient><filter id="s"><feDropShadow dx="0" dy="8" stdDeviation="6" flood-color="#2b4a2d" flood-opacity=".18"/></filter></defs><rect width="240" height="240" rx="42" fill="url(#bg)"/><g filter="url(#s)"><path d="M70 88L55 52l39 16M170 88l15-36-39 16" fill="#4c4a45" stroke="#2d2a28" stroke-width="5"/><circle cx="120" cy="128" r="62" fill="#737069" stroke="#2d2a28" stroke-width="5"/><path d="M70 117q50-42 100 0q-11 45-50 45t-50-45z" fill="#2d2a28" opacity=".95"/><ellipse cx="96" cy="123" rx="21" ry="15" fill="#f5eee0"/><ellipse cx="144" cy="123" rx="21" ry="15" fill="#f5eee0"/><circle cx="96" cy="123" r="7" fill="#201815"/><circle cx="144" cy="123" r="7" fill="#201815"/><circle cx="120" cy="144" r="7" fill="#201815"/><path d="M112 153q8 8 16 0" fill="none" stroke="#201815" stroke-width="4" stroke-linecap="round"/><circle cx="91" cy="151" r="10" fill="#d69a92" opacity=".8"/><circle cx="149" cy="151" r="10" fill="#d69a92" opacity=".8"/><path d="M78 199q42-29 84 0v25H78z" fill="#5b8f49" stroke="#3b6a32" stroke-width="4"/><rect x="76" y="78" width="88" height="16" rx="8" fill="#7bb46a" transform="rotate(-8 120 86)"/></g></svg>